<?xml version="1.0" encoding="UTF-8" standalone="no"?>
<!-- Created with Inkscape (http://www.inkscape.org/) -->

<svg
   xmlns:dc="http://purl.org/dc/elements/1.1/"
   xmlns:cc="http://creativecommons.org/ns#"
   xmlns:rdf="http://www.w3.org/1999/02/22-rdf-syntax-ns#"
   xmlns:svg="http://www.w3.org/2000/svg"
   xmlns="http://www.w3.org/2000/svg"
   xmlns:sodipodi="http://sodipodi.sourceforge.net/DTD/sodipodi-0.dtd"
   xmlns:inkscape="http://www.inkscape.org/namespaces/inkscape"
   version="1.1"
   id="svg64"
   width="1280"
   height="859"
   viewBox="0 0 1280 859"
   sodipodi:docname="disc-aquarius.svg"
   inkscape:version="0.92.4 (f8dce91, 2019-08-02)">
  <metadata
     id="metadata70">
    <rdf:RDF>
      <cc:Work
         rdf:about="">
        <dc:format>image/svg+xml</dc:format>
        <dc:type
           rdf:resource="http://purl.org/dc/dcmitype/StillImage" />
        <dc:title></dc:title>
      </cc:Work>
    </rdf:RDF>
  </metadata>
  <defs
     id="defs68" />
  <sodipodi:namedview
     pagecolor="#ffffff"
     bordercolor="#666666"
     borderopacity="1"
     objecttolerance="10"
     gridtolerance="10"
     guidetolerance="10"
     inkscape:pageopacity="0"
     inkscape:pageshadow="2"
     inkscape:window-width="1753"
     inkscape:window-height="918"
     id="namedview66"
     showgrid="false"
     inkscape:zoom="0.4790454"
     inkscape:cx="312.26488"
     inkscape:cy="429.5"
     inkscape:window-x="3886"
     inkscape:window-y="62"
     inkscape:window-maximized="0"
     inkscape:current-layer="svg64" />
  <g
     id="g924"
     transform="matrix(0.89066733,0,0,1,66.466325,359.04739)"
     style="stroke:#000000;stroke-width:1.05960071;stroke-opacity:1">
    <path
       inkscape:connector-curvature="0"
       id="path905"
       d="M -926.84326,-94.980562 C -624.15796,-291.20413 -624.15796,-291.20413 -624.15796,-291.20413 -540.65857,-101.24301 -540.65857,-101.24301 -540.65857,-101.24301 -240.06075,-293.29162 -240.06075,-293.29162 -240.06075,-293.29162 -156.56136,-103.3305 -156.56136,-103.3305 -156.56136,-103.3305 146.1239,-291.20413 146.1239,-291.20413 146.1239,-291.20413 235.8858,-86.630622 242.1482,-90.805592 242.1482,-90.805592 246.32321,-97.068043 244.23565,-84.543141 242.1482,-90.805592"
       style="fill:none;stroke:#000000;stroke-width:37.08602524;stroke-linecap:butt;stroke-linejoin:miter;stroke-miterlimit:4;stroke-dasharray:none;stroke-opacity:1" />
    <path
       inkscape:connector-curvature="0"
       id="path905-6"
       d="M -926.8433,205.01944 C -624.158,8.79587 -624.158,8.79587 -624.158,8.79587 -540.65857,198.75699 -540.65857,198.75699 -540.65857,198.75699 -240.06075,6.70838 -240.06075,6.70838 -240.06075,6.70838 -156.56136,196.6695 -156.56136,196.6695 -156.56136,196.6695 146.12395,8.79587 146.12395,8.79587 146.12395,8.79587 235.88585,213.36938 242.14825,209.19441 242.14825,209.19441 246.32325,202.93196 244.23565,215.45686 242.14825,209.19441"
       style="fill:none;stroke:#000000;stroke-width:37.08602524;stroke-linecap:butt;stroke-linejoin:miter;stroke-miterlimit:4;stroke-dasharray:none;stroke-opacity:1" />
  </g>
</svg>
