<?xml version="1.0" encoding="UTF-8" standalone="no"?>
<!-- Created with Inkscape (http://www.inkscape.org/) -->

<svg
   xmlns:dc="http://purl.org/dc/elements/1.1/"
   xmlns:cc="http://creativecommons.org/ns#"
   xmlns:rdf="http://www.w3.org/1999/02/22-rdf-syntax-ns#"
   xmlns:svg="http://www.w3.org/2000/svg"
   xmlns="http://www.w3.org/2000/svg"
   xmlns:sodipodi="http://sodipodi.sourceforge.net/DTD/sodipodi-0.dtd"
   xmlns:inkscape="http://www.inkscape.org/namespaces/inkscape"
   version="1.1"
   id="svg80"
   width="512"
   height="512"
   viewBox="0 0 512 512"
   sodipodi:docname="disc-aries.png.svg"
   inkscape:version="0.92.4 (f8dce91, 2019-08-02)">
  <metadata
     id="metadata86">
    <rdf:RDF>
      <cc:Work
         rdf:about="">
        <dc:format>image/svg+xml</dc:format>
        <dc:type
           rdf:resource="http://purl.org/dc/dcmitype/StillImage" />
        <dc:title></dc:title>
      </cc:Work>
    </rdf:RDF>
  </metadata>
  <defs
     id="defs84">
    <inkscape:path-effect
       effect="skeletal"
       id="path-effect96"
       is_visible="true"
       pattern="M 0,0 H 1"
       copytype="single_stretched"
       prop_scale="1"
       scale_y_rel="false"
       spacing="0"
       normal_offset="0"
       tang_offset="0"
       prop_units="false"
       vertical_pattern="false"
       fuse_tolerance="0" />
  </defs>
  <sodipodi:namedview
     pagecolor="#ffffff"
     bordercolor="#666666"
     borderopacity="1"
     objecttolerance="10"
     gridtolerance="10"
     guidetolerance="10"
     inkscape:pageopacity="0"
     inkscape:pageshadow="2"
     inkscape:window-width="1553"
     inkscape:window-height="897"
     id="namedview82"
     showgrid="false"
     inkscape:zoom="0.40185547"
     inkscape:cx="116.99123"
     inkscape:cy="256"
     inkscape:window-x="3901"
     inkscape:window-y="40"
     inkscape:window-maximized="0"
     inkscape:current-layer="svg80" />
  <path
     style="opacity:1;fill:none;stroke:#000000;stroke-width:15;stroke-linecap:butt;stroke-linejoin:miter;stroke-miterlimit:4;stroke-dasharray:none;stroke-opacity:1"
     inkscape:path-effect="#path-effect96"
     inkscape:original-d="M 459.25683,202.30958 C 476.337,164.01245 487.00747,111.28024 456.69314,76.893751 421.72907,44.277301 355.35842,39.531938 325.67107,81.890836 287.94023,134.35512 273.15265,198.93913 261.40947,261.35718 257.85884,307.4796 261.0454,353.83483 259.91198,400.04661 262.1052,416.66673 256.48135,442.32914 251.27292,412.29794 252.78936,383.30404 251.65623,354.6787 251.07153,325.65063 252.67379,282.73435 246.10853,240.09389 232.19056,199.53002 218.38542,151.14306 201.12312,99.746247 162.32115,65.543421 126.3549,42.80148 70.047187,45.611668 42.263378,80.065159 15.478207,116.50493 33.481713,164.78123 50.148738,201.42977"
     id="path90"
     d="M 459.25683,202.30958 C 468.30395,182.02415 474.73822,160.32368 475.74792,138.13518 476.24575,127.1953 475.32174,116.13282 472.28447,105.61124 469.23843,95.059272 463.95602,85.13226 456.69314,76.893751 447.77292,68.57247 437.06148,62.257154 425.64529,57.957772 L 425.64526,57.957761 C 414.02543,53.581689 401.61987,51.260704 389.20333,51.276538 377.04065,51.292048 364.81266,53.596814 353.75083,58.65318 L 353.7508,58.653193 C 342.56818,63.764776 332.72784,71.822006 325.67107,81.890836 306.97904,107.88188 293.65996,137.43471 283.7949,167.89135 273.91625,198.38993 267.33691,229.85132 261.40948,261.35715 L 261.40947,261.35718 C 257.85989,307.46591 261.04588,353.81536 259.91198,400.04661 260.48647,404.40007 260.52751,408.81519 260.21983,413.1956 260.21983,413.19561 260.21983,413.19562 260.21983,413.19563 260.07984,415.18861 259.86135,417.1774 259.51566,419.14515 259.24626,420.67867 258.91629,422.20922 258.36807,423.66652 258.36806,423.66653 258.36806,423.66654 258.36806,423.66655 258.17423,424.18179 257.95267,424.68951 257.65814,425.15457 257.65813,425.15458 257.65812,425.15459 257.65812,425.1546 257.4505,425.48242 257.20565,425.80045 256.87352,426.00111 256.62144,426.1534 256.30588,426.20387 256.02629,426.11129 255.65689,425.98895 255.36911,425.69612 255.1285,425.39029 254.15215,424.14926 253.68709,422.58673 253.22947,421.07544 252.36025,418.20477 251.78546,415.2532 251.27292,412.29794 L 251.27292,412.29788 C 252.78185,383.4475 251.65333,354.53465 251.07153,325.65069 L 251.07153,325.65063 C 252.66646,282.93067 246.06457,239.96578 232.19056,199.53002 225.16859,174.91803 217.51656,150.38087 206.62967,127.21767 195.78548,104.14533 181.44566,82.401133 162.32115,65.543421 162.32113,65.54341 162.32111,65.543398 162.3211,65.543387 153.14835,59.743348 142.88958,55.730056 132.29596,53.373164 121.47018,50.96462 110.26115,50.271336 99.223849,51.356003 88.313053,52.428237 77.540238,55.257982 67.685945,60.062985 57.915411,64.827147 49.086965,71.603526 42.263378,80.065159 35.94645,88.658997 31.719537,98.746816 29.851671,109.24771 28.009166,119.60603 28.324266,130.26868 29.911485,140.66918 33.142211,161.83903 41.283378,181.93604 50.148738,201.42977"
     inkscape:connector-curvature="0" />
</svg>
